<?xml version="1.0" standalone="no"?>
<!DOCTYPE svg PUBLIC "-//W3C//DTD SVG 20010904//EN"
 "http://www.w3.org/TR/2001/REC-SVG-20010904/DTD/svg10.dtd">
<svg version="1.0" xmlns="http://www.w3.org/2000/svg"
 width="960.000000pt" height="960.000000pt" viewBox="0 0 960.000000 960.000000"
 preserveAspectRatio="xMidYMid meet">

<g transform="translate(0.000000,960.000000) scale(0.100000,-0.100000)"
fill="#000000" stroke="none">
<path d="M0 4800 l0 -4800 4800 0 4800 0 0 4800 0 4800 -4800 0 -4800 0 0
-4800z m4700 3734 l0 -55 -52 3 -53 3 -3 39 c-5 59 1 66 58 66 l50 0 0 -56z
m-297 -41 c9 -63 12 -67 56 -63 28 2 41 -14 41 -53 0 -23 -5 -29 -31 -34 -17
-3 -33 -12 -36 -20 -10 -25 18 -197 35 -215 8 -10 27 -18 42 -18 29 0 40 -15
40 -55 0 -33 -66 -52 -123 -35 -51 15 -71 51 -86 157 -21 155 -21 153 -45 163
-34 13 -44 69 -15 91 18 13 21 24 18 75 -4 58 -4 59 26 65 63 14 69 9 78 -58z
m299 -113 c3 -30 6 -126 7 -213 l1 -158 -52 3 -53 3 -6 200 c-3 125 -2 205 4
213 6 8 26 12 51 10 l41 -3 7 -55z m161 47 c7 -7 22 -55 32 -107 10 -52 21
-101 25 -109 12 -22 22 2 50 114 l25 100 43 3 c30 2 42 -1 42 -10 0 -23 -111
-392 -122 -405 -9 -12 -65 -8 -80 6 -11 10 -109 401 -103 410 7 13 72 11 88
-2z m1250 -29 c57 -28 77 -69 77 -156 0 -82 -6 -90 -67 -75 l-38 9 3 52 c3 44
0 55 -22 77 -35 35 -63 32 -107 -14 -42 -45 -97 -175 -106 -251 -5 -43 -3 -51
20 -74 43 -43 91 -28 137 42 l15 23 48 -18 c26 -9 47 -21 47 -26 0 -5 -13 -28
-30 -52 -39 -57 -123 -100 -180 -92 -60 8 -112 38 -144 84 -24 35 -28 51 -28
105 0 140 87 322 176 370 57 31 133 29 199 -4z m-714 -16 c50 -37 63 -65 65
-140 0 -39 -2 -74 -6 -78 -4 -4 -49 -2 -100 3 -51 5 -99 8 -106 5 -9 -3 -12
-21 -10 -55 3 -45 7 -53 31 -67 28 -15 29 -14 62 23 30 35 36 38 70 31 48 -9
53 -26 21 -69 -35 -45 -74 -65 -129 -65 -107 0 -167 65 -167 182 0 118 44 212
115 245 39 17 121 10 154 -15z m-1279 -27 c16 -8 34 -24 40 -36 10 -18 90
-322 90 -340 0 -4 -20 -11 -46 -15 -37 -5 -47 -3 -59 12 -14 18 -15 18 -37 -8
-83 -96 -208 -43 -208 90 0 53 40 96 115 127 33 13 61 28 63 34 5 14 -27 71
-43 77 -23 9 -53 -14 -57 -43 -3 -24 -9 -29 -48 -35 -57 -10 -67 0 -52 50 11
37 56 79 102 95 31 11 112 6 140 -8z m-370 -70 c23 -59 22 -70 -4 -84 -13 -8
-30 -27 -37 -43 -11 -26 -8 -42 25 -136 50 -141 50 -142 1 -159 -22 -7 -45
-11 -51 -9 -6 2 -23 37 -37 78 -14 40 -42 118 -62 173 -52 140 -53 143 -20
155 41 15 59 12 70 -12 14 -32 26 -29 39 10 19 55 60 69 76 27z m-350 -134
c34 -17 110 -111 110 -136 0 -7 -37 -26 -82 -44 -119 -45 -117 -43 -93 -86 10
-20 31 -43 46 -51 24 -12 30 -11 54 8 19 15 26 28 22 44 -2 12 -1 26 2 31 10
13 73 33 84 26 5 -3 7 -30 5 -59 -7 -84 -67 -134 -158 -134 -109 0 -208 119
-217 260 -4 72 6 101 48 133 52 38 112 41 179 8z m2987 -24 c10 -7 9 -15 -3
-38 -18 -36 -4 -39 41 -9 62 41 94 17 63 -49 -18 -41 -21 -43 -52 -37 -56 11
-93 -24 -153 -144 -29 -58 -58 -106 -66 -108 -18 -4 -87 26 -87 38 0 11 167
350 181 367 11 12 45 3 76 -20z m-3407 -127 c80 -22 200 -191 200 -282 0 -73
-42 -118 -110 -118 -17 0 -30 -5 -30 -12 0 -7 18 -38 41 -70 22 -32 38 -62 34
-67 -7 -12 -64 -41 -81 -41 -6 0 -32 33 -57 73 -166 270 -247 406 -247 414 0
5 16 17 36 26 28 14 39 15 50 6 18 -15 44 -4 44 19 0 26 39 59 75 61 6 1 26
-4 45 -9z m3750 -20 c47 -24 70 -64 70 -122 0 -46 -41 -148 -60 -148 -6 0 -46
18 -90 40 -44 22 -86 40 -95 40 -8 0 -24 -18 -35 -41 -20 -38 -20 -42 -5 -65
18 -28 54 -31 91 -7 23 15 28 15 60 0 19 -9 34 -23 34 -31 0 -26 -82 -66 -134
-66 -130 0 -190 108 -132 236 72 157 186 220 296 164z m-4222 -135 c91 -42
222 -184 262 -283 44 -111 -28 -219 -153 -230 -72 -6 -146 31 -226 111 -105
106 -151 187 -151 268 0 40 5 54 32 85 38 43 99 74 148 74 19 0 59 -11 88 -25z
m4778 -16 c19 -11 34 -25 34 -31 0 -5 -46 -69 -102 -141 -56 -73 -133 -172
-171 -222 -38 -49 -74 -93 -81 -97 -6 -4 -27 3 -45 14 -27 17 -31 25 -26 46 6
23 4 24 -27 19 -40 -6 -93 14 -107 41 -41 77 63 262 181 323 66 34 151 15 164
-36 3 -14 12 -25 18 -25 7 0 34 29 61 65 27 36 54 65 59 65 5 0 24 -9 42 -21z
m-2200 -69 c1058 -85 2019 -661 2536 -1520 93 -154 134 -236 198 -390 110
-268 185 -578 196 -812 14 -276 14 -356 4 -468 -55 -617 -286 -1156 -696
-1630 -88 -102 -305 -317 -348 -345 -57 -38 -38 -40 281 -36 449 5 1974 -10
1968 -20 -3 -4 -31 -28 -63 -52 -31 -24 -122 -94 -202 -157 -80 -63 -200 -157
-268 -209 -68 -53 -165 -129 -215 -168 -51 -40 -95 -73 -99 -73 -15 0 -8 -35
10 -46 15 -10 153 -117 318 -248 29 -23 159 -124 290 -226 l237 -185 -879 -5
-879 -5 -5 -170 -5 -170 -1335 -5 c-734 -3 -1936 -3 -2670 0 l-1335 5 -2 158
c-1 88 -4 165 -7 173 -5 12 -140 14 -882 16 l-876 3 263 205 c145 113 339 264
431 335 92 72 167 137 167 145 0 8 -41 47 -92 85 -117 90 -187 144 -372 289
-82 65 -206 161 -275 214 l-125 97 590 8 c325 4 839 6 1143 5 389 -2 552 0
552 8 0 6 -28 33 -63 62 -90 72 -290 281 -387 403 -356 445 -571 978 -619
1536 -36 414 36 887 194 1269 282 681 798 1226 1490 1574 331 166 644 265
1031 325 215 34 556 44 800 25z m2414 -90 l34 -30 -39 -40 c-21 -22 -42 -40
-47 -40 -4 0 -23 14 -43 32 l-36 31 37 39 c21 21 43 38 49 38 5 -1 26 -14 45
-30z m-113 -122 l32 -33 -62 -65 c-34 -36 -101 -108 -149 -159 -95 -104 -84
-101 -152 -46 -19 15 -19 15 5 42 107 121 274 293 284 293 6 0 25 -15 42 -32z
m293 -60 c17 -12 30 -27 30 -34 0 -7 -20 -30 -45 -52 -50 -44 -54 -56 -25 -72
27 -15 24 -31 -10 -58 l-29 -23 -30 22 -29 22 -86 -73 c-94 -80 -107 -101 -81
-130 21 -23 15 -43 -19 -65 -29 -20 -51 -11 -90 36 -47 55 -32 97 63 183 136
122 136 123 121 141 -12 14 -10 19 16 40 21 18 36 23 57 19 22 -5 36 1 67 30
22 20 45 36 50 36 6 0 24 -10 40 -22z m-5335 -128 l19 -21 -54 -49 c-30 -27
-60 -49 -66 -50 -12 0 -51 39 -56 56 -2 6 22 32 52 57 58 48 67 49 105 7z
m-282 -99 c99 -43 207 -159 207 -224 0 -46 -53 -113 -105 -132 -38 -15 -52
-16 -92 -6 -56 14 -126 57 -182 111 -57 55 -74 94 -68 149 4 38 12 52 47 83
59 52 104 57 193 19z m5987 -140 c77 -40 112 -139 76 -210 -22 -42 -30 -44
-76 -21 -32 16 -40 25 -34 38 28 65 6 112 -52 112 -24 0 -38 -7 -49 -24 -15
-22 -15 -31 1 -104 26 -124 8 -175 -83 -229 -59 -34 -140 -37 -198 -7 -51 27
-105 104 -105 151 0 35 45 133 62 133 5 0 26 -11 49 -25 l40 -26 -21 -26 c-26
-33 -25 -66 3 -97 32 -37 67 -42 101 -15 26 20 27 25 21 73 -20 164 -18 178
16 220 60 72 173 98 249 57z m-6404 -66 c27 -8 58 -21 69 -29 20 -14 20 -15 1
-48 -27 -46 -35 -49 -75 -27 -68 36 -131 15 -131 -44 0 -41 77 -115 182 -175
95 -54 133 -61 171 -32 35 28 34 57 -3 100 -16 19 -29 40 -30 46 0 13 53 64
67 64 21 0 81 -80 93 -125 22 -77 -13 -146 -96 -185 -38 -19 -57 -22 -107 -17
-115 10 -293 121 -361 223 -57 88 -26 202 67 245 51 23 88 24 153 4z m6508
-369 c67 -28 104 -122 73 -183 -59 -112 -294 -201 -384 -144 -36 23 -73 87
-73 126 0 49 63 119 145 162 95 50 179 64 239 39z m-6774 -194 c31 -15 35 -21
32 -51 -6 -56 42 -93 206 -156 39 -16 72 -34 72 -41 0 -23 -35 -74 -50 -74
-17 0 -390 157 -403 170 -12 11 21 70 39 70 8 0 24 -5 36 -11 30 -16 34 -2 10
31 -12 16 -22 41 -22 55 0 30 27 33 80 7z m6968 -174 c35 -10 76 -62 87 -110
9 -37 -20 -94 -64 -124 -19 -13 -40 -24 -46 -24 -6 0 -19 16 -29 35 l-19 36
34 29 c28 24 32 31 23 47 -20 33 -56 38 -131 15 -38 -12 -85 -32 -104 -45 -61
-41 -47 -87 26 -87 41 0 44 -2 55 -35 6 -19 9 -39 5 -45 -11 -18 -127 -12
-162 10 -67 41 -86 133 -39 194 32 43 128 91 216 110 65 14 86 13 148 -6z
m-6918 -179 c91 -28 169 -54 173 -59 5 -4 1 -24 -7 -45 -14 -32 -19 -36 -41
-31 -30 8 -32 -4 -9 -44 21 -34 13 -72 -21 -106 -47 -47 -179 -22 -221 42 -13
20 -16 40 -11 100 5 74 5 75 -21 85 -35 13 -73 8 -86 -13 -8 -14 -5 -23 19
-48 l29 -31 -18 -34 c-11 -19 -24 -35 -30 -35 -20 0 -56 30 -71 60 -44 85 27
210 120 210 17 0 105 -23 195 -51z m7254 -110 c21 -46 18 -51 -40 -67 -59 -17
-61 -16 -76 26 -18 52 -18 54 27 68 63 19 70 17 89 -27z m-165 -49 l19 -40
-21 -15 c-12 -8 -26 -15 -33 -15 -6 0 -37 -9 -70 -19 -175 -56 -293 -91 -306
-91 -22 0 -50 71 -35 86 7 6 64 26 127 45 63 18 151 46 195 60 44 15 86 28 92
28 7 1 21 -17 32 -39z m-7215 -215 c92 -19 169 -35 171 -35 8 0 6 -22 -6 -63
-9 -33 -14 -38 -32 -33 -12 3 -91 20 -175 37 -147 30 -154 30 -173 14 -49 -45
-11 -69 164 -105 190 -40 180 -35 172 -79 -12 -64 14 -64 -310 4 -121 25 -240
50 -263 54 -24 5 -48 13 -53 18 -9 9 5 68 20 85 3 4 46 -2 95 -12 49 -11 92
-18 95 -15 2 3 -1 21 -7 40 -26 69 16 125 93 125 24 0 118 -16 209 -35z m7244
-6 c32 -16 49 -33 64 -64 40 -81 -2 -155 -110 -195 -96 -36 -93 -38 -121 69
l-24 93 -39 -5 c-100 -13 -120 -81 -32 -112 28 -9 40 -20 46 -41 11 -40 1 -47
-54 -41 -64 8 -102 37 -124 92 -22 58 -8 111 38 150 83 70 265 98 356 54z
m-7680 -335 c14 -4 16 -43 2 -78 -8 -22 -14 -25 -42 -20 -82 14 -79 11 -73 52
11 63 11 63 57 56 24 -3 49 -7 56 -10z m7795 -4 c6 -22 19 -24 87 -10 53 10
67 1 72 -50 l3 -35 -65 -11 c-36 -7 -69 -12 -73 -13 -5 -1 -7 -15 -5 -33 3
-28 0 -32 -31 -40 -44 -12 -61 -4 -61 26 0 14 -4 28 -10 31 -11 7 -169 -11
-222 -26 -21 -5 -39 -15 -39 -22 -1 -7 -2 -21 -3 -32 -1 -14 -12 -22 -39 -28
-52 -13 -67 2 -67 67 0 85 36 106 215 126 112 13 145 23 145 44 0 15 19 23 61
25 19 1 28 -5 32 -19z m-7450 -40 c93 -11 173 -23 178 -26 10 -6 2 -73 -10
-86 -4 -4 -108 5 -231 20 l-225 28 3 44 c2 25 8 48 14 51 5 3 30 2 56 -2 26
-5 123 -18 215 -29z m91 -220 c54 -32 61 -59 59 -198 -1 -69 -4 -126 -6 -129
-9 -8 -620 16 -630 26 -17 17 9 250 30 273 31 34 70 48 135 48 63 0 128 -25
128 -50 0 -18 26 -10 50 15 13 14 38 30 54 35 45 14 143 3 180 -20z m7396 -29
l0 -48 -57 -12 c-32 -7 -88 -17 -125 -24 -37 -7 -67 -16 -68 -22 -1 -10 15
-14 170 -38 l85 -13 0 -40 c0 -28 -4 -39 -15 -38 -20 2 -405 80 -494 101 -75
18 -120 49 -130 89 -12 48 0 64 50 64 42 0 45 -2 51 -30 6 -33 36 -60 66 -60
17 0 133 31 337 90 133 39 130 40 130 -19z m-285 -471 c212 -25 255 -30 344
-40 52 -6 98 -13 102 -16 10 -6 0 -75 -14 -91 -5 -7 -19 -11 -31 -8 -64 15
-471 54 -479 46 -5 -5 -12 -39 -16 -75 -4 -36 -10 -69 -14 -73 -9 -9 -89 -5
-99 6 -7 6 16 228 27 259 3 9 17 12 47 8 24 -3 84 -10 133 -16z m-7083 -96
c60 -31 90 -103 68 -168 -24 -72 -122 -117 -260 -119 -100 -1 -169 25 -201 77
-59 96 19 197 170 221 54 9 58 4 67 -97 8 -93 17 -103 76 -88 54 15 68 26 68
55 0 27 -18 44 -57 54 -21 5 -29 14 -31 35 -6 47 4 58 40 51 18 -4 45 -14 60
-21z m7067 -249 c54 -8 106 -18 116 -21 12 -5 23 0 35 16 14 19 22 21 58 15
31 -5 42 -11 44 -28 2 -17 13 -23 48 -30 98 -17 93 -14 87 -58 -3 -23 -8 -43
-11 -46 -3 -3 -32 -2 -65 4 -66 10 -91 3 -91 -28 0 -26 -19 -32 -61 -21 -30 7
-34 12 -34 42 l0 34 -105 18 c-131 23 -151 21 -168 -15 -12 -25 -18 -28 -55
-25 -38 3 -42 6 -45 32 -5 37 15 82 46 106 30 24 68 25 201 5z m-6946 -120
c10 -20 15 -41 10 -46 -4 -4 -80 -26 -167 -48 -163 -42 -186 -52 -186 -80 0
-51 41 -52 225 -6 77 19 145 35 152 35 15 0 38 -79 26 -90 -12 -11 -595 -152
-601 -145 -10 10 -31 79 -26 86 3 5 40 16 84 25 106 23 112 28 73 59 -62 49
-53 126 18 155 39 17 350 98 364 95 6 -1 18 -19 28 -40z m6853 -96 c117 -21
188 -52 228 -99 33 -40 33 -80 0 -120 -15 -17 -23 -35 -18 -39 5 -5 38 -14 74
-21 106 -21 115 -32 74 -97 l-14 -22 -87 23 c-156 41 -469 116 -486 116 -24 0
-30 17 -17 55 9 27 17 35 36 35 28 0 30 8 9 36 -35 47 -2 114 65 133 48 13 67
13 136 0z m-6713 -324 c25 -52 22 -60 -30 -78 -207 -68 -410 -141 -421 -152
-12 -10 -11 -18 3 -45 9 -17 14 -37 12 -44 -7 -17 -85 -42 -96 -30 -4 5 -23
45 -41 89 -18 44 -43 102 -56 129 -30 62 -30 64 4 77 68 26 77 24 92 -21 7
-22 17 -43 22 -46 7 -4 165 48 398 131 87 31 94 31 113 -10z m6472 -36 c30
-11 55 -23 55 -25 0 -12 -41 -84 -48 -84 -11 0 -100 35 -107 42 -6 6 31 88 40
88 2 0 29 -9 60 -21z"/>
<path d="M5288 8320 c-27 -21 -40 -51 -29 -68 3 -6 29 -12 56 -14 l50 -3 3 37
c2 28 -2 40 -20 52 -28 20 -30 20 -60 -4z"/>
<path d="M4050 8133 c-33 -22 -40 -33 -40 -63 0 -34 26 -70 50 -70 11 0 27 12
36 26 14 20 15 34 8 71 -10 54 -20 60 -54 36z"/>
<path d="M3275 8077 c-12 -19 -13 -30 -4 -55 13 -37 15 -37 69 -16 46 19 51
40 17 72 -30 29 -63 28 -82 -1z"/>
<path d="M2890 7905 c-20 -24 -4 -73 50 -157 61 -96 79 -107 117 -73 l28 24
-40 77 c-64 123 -121 171 -155 129z"/>
<path d="M6628 7909 c-10 -5 -22 -19 -28 -29 -9 -17 -5 -23 31 -45 47 -30 65
-27 80 12 21 57 -29 94 -83 62z"/>
<path d="M2370 7750 c-11 -11 -20 -27 -20 -35 0 -58 176 -265 239 -282 32 -8
75 16 79 44 5 34 -22 81 -95 165 -109 125 -159 152 -203 108z"/>
<path d="M6948 7651 c-58 -65 -99 -136 -91 -158 9 -24 40 -34 67 -21 26 11
136 146 149 181 11 29 -10 57 -43 57 -22 0 -40 -13 -82 -59z"/>
<path d="M4488 7720 c-705 -68 -1326 -323 -1843 -756 -920 -771 -1267 -1964
-890 -3062 145 -424 382 -792 726 -1129 203 -198 405 -349 669 -499 l105 -59
1531 -3 1532 -2 88 46 c315 166 638 423 879 699 372 425 602 928 682 1490 20
148 23 514 5 660 -85 663 -370 1228 -864 1711 -239 234 -492 413 -800 566
-335 165 -653 263 -1038 319 -162 23 -620 35 -782 19z m857 -1636 c19 -9 72
-51 118 -94 73 -69 95 -83 178 -116 112 -44 198 -86 312 -153 127 -75 214
-117 292 -139 95 -27 140 -33 154 -19 6 6 11 45 11 89 l0 78 239 0 c181 0 242
3 248 13 4 6 8 30 8 52 l0 40 335 0 335 0 0 -1075 0 -1075 -329 -3 c-257 -2
-331 1 -338 10 -4 7 -8 69 -8 138 1 69 1 131 1 138 -1 9 -56 12 -240 12 -165
0 -242 3 -247 11 -3 6 -6 53 -5 104 1 56 -2 96 -8 100 -6 3 -21 -17 -35 -48
-19 -45 -31 -58 -68 -76 -24 -11 -58 -21 -76 -21 -58 0 -136 -39 -243 -123
-108 -85 -130 -96 -334 -162 -39 -13 -58 -27 -88 -66 -77 -102 -155 -125 -307
-94 -47 10 -112 20 -145 22 -57 4 -66 1 -180 -55 -166 -81 -182 -87 -251 -87
-51 0 -66 4 -98 28 -20 16 -47 50 -59 75 -12 26 -23 49 -24 51 -1 2 -33 -6
-69 -18 -38 -12 -106 -24 -158 -27 -84 -6 -94 -4 -126 18 -44 30 -77 95 -86
168 l-6 58 -67 7 c-102 11 -163 38 -216 97 -39 43 -86 126 -109 192 -5 15 -13
17 -39 12 -212 -43 -307 -16 -322 94 -12 86 -72 150 -142 150 l-33 0 -2 -212
-3 -213 -230 -5 -230 -5 -5 -145 -5 -145 -310 0 -310 0 -3 1064 c-1 630 2
1067 7 1070 5 3 146 5 314 3 l306 -3 3 -42 3 -42 230 -5 230 -5 5 -95 5 -95
120 2 c160 2 245 21 385 88 232 110 340 134 639 141 l203 4 40 41 c22 23 59
49 81 59 64 28 184 42 326 38 120 -3 129 -2 162 21 19 13 52 47 74 77 46 61
110 114 138 114 10 0 34 -7 52 -16z"/>
<path d="M5244 5968 c-30 -28 -51 -54 -47 -58 12 -9 233 12 233 22 0 19 -92
87 -118 88 -7 0 -38 -23 -68 -52z"/>
<path d="M5240 5830 c-36 -4 -153 -11 -260 -15 -205 -7 -286 -20 -354 -58 -34
-19 -49 -40 -105 -148 -90 -173 -106 -194 -166 -239 -29 -21 -81 -62 -115 -91
-72 -59 -71 -63 25 -99 47 -18 81 -23 155 -23 147 0 198 25 447 220 131 103
163 118 182 86 11 -21 4 -37 -44 -87 -40 -42 -41 -56 -4 -67 308 -91 412 -138
666 -297 163 -103 347 -259 496 -422 85 -94 131 -159 177 -249 61 -118 60
-123 60 517 0 597 0 602 -40 602 -20 0 -238 72 -310 102 -100 42 -180 90 -243
147 -84 77 -106 89 -194 112 -81 20 -241 24 -373 9z"/>
<path d="M4065 5663 c-105 -14 -298 -84 -410 -150 -119 -70 -250 -101 -490
-116 l-40 -2 0 -455 0 -455 59 -3 c55 -3 64 0 135 44 90 55 146 74 224 74 98
0 148 -42 207 -173 19 -42 41 -77 48 -77 27 0 170 102 232 166 36 37 79 73 97
80 65 28 180 9 244 -39 49 -36 58 -69 51 -186 -8 -114 -4 -122 46 -103 49 20
144 34 178 28 54 -11 74 -46 74 -130 0 -70 14 -141 31 -162 6 -8 25 -5 66 9
32 10 79 20 105 21 67 2 87 -23 129 -158 39 -126 37 -125 184 -175 61 -21 104
-31 120 -27 31 8 92 61 100 87 6 19 -62 98 -292 340 -76 79 -86 101 -54 119
49 26 65 16 233 -156 90 -91 177 -174 194 -185 39 -24 72 -24 157 0 100 28
126 60 94 119 -7 12 -74 84 -148 160 -87 87 -143 153 -156 182 -51 110 -39
132 68 132 129 1 234 -56 393 -214 71 -70 168 -128 213 -128 37 0 90 26 108
53 15 23 14 28 -1 68 -17 44 -79 136 -129 194 -145 166 -286 299 -474 444
-119 93 -129 99 -291 166 -218 92 -395 145 -479 145 -21 0 -64 -13 -99 -30
-146 -71 -410 -129 -516 -114 -98 13 -190 74 -231 153 -15 30 -15 35 -1 57 22
33 50 49 131 75 91 29 165 100 218 209 61 127 73 115 -126 116 -94 0 -185 -1
-202 -3z"/>
<path d="M2670 5632 c-7 -3 -10 -278 -10 -798 l0 -794 180 0 180 0 0 795 c0
437 -3 795 -7 795 -82 3 -336 4 -343 2z"/>
<path d="M6682 5633 l-182 -3 2 -778 3 -777 195 0 195 0 0 780 c0 686 -2 780
-15 780 -8 0 -97 -1 -198 -2z"/>
<path d="M4137 4509 c-15 -11 -34 -36 -43 -55 -24 -50 -102 -116 -164 -138
-96 -34 -159 -114 -145 -183 3 -13 7 -34 10 -48 7 -34 61 -92 106 -116 80 -40
167 -13 258 80 158 164 221 332 154 412 -29 34 -94 68 -129 69 -12 0 -33 -9
-47 -21z"/>
<path d="M3451 4497 c-18 -6 -56 -31 -84 -57 -40 -37 -50 -53 -50 -79 0 -42
28 -78 90 -113 71 -40 133 -41 175 -2 65 62 90 181 46 221 -24 22 -88 44 -123
42 -11 -1 -35 -6 -54 -12z"/>
<path d="M5590 4350 c0 -21 49 -74 172 -183 42 -37 91 -90 109 -117 18 -28 35
-50 38 -50 8 0 115 80 118 88 2 4 -21 19 -50 35 -28 15 -103 68 -166 118 -154
122 -221 155 -221 109z"/>
<path d="M4490 4187 c-91 -27 -144 -61 -235 -152 -108 -106 -140 -163 -132
-231 8 -72 92 -144 168 -144 103 0 288 175 349 329 31 79 36 151 14 179 -24
29 -100 37 -164 19z"/>
<path d="M4841 3925 c-37 -17 -82 -54 -143 -117 -124 -126 -124 -126 -99 -182
14 -34 27 -47 48 -52 58 -15 258 57 293 106 32 45 44 113 31 177 -12 59 -33
93 -60 93 -9 0 -40 -11 -70 -25z"/>
<path d="M8033 2522 c-611 -1 -1073 -6 -1073 -11 0 -5 93 -63 208 -129 114
-67 228 -135 255 -151 l47 -31 0 -494 c0 -404 2 -496 14 -505 18 -15 1638 -11
1643 5 2 6 -31 37 -74 70 -43 33 -184 143 -313 244 -129 101 -278 217 -332
259 -53 41 -94 79 -92 85 3 6 33 32 67 57 34 26 116 89 182 141 66 52 152 119
190 149 357 275 398 311 359 313 -5 1 -492 0 -1081 -2z"/>
<path d="M460 2512 c0 -5 105 -90 233 -190 127 -99 311 -242 407 -318 96 -75
175 -140 175 -145 0 -8 -106 -92 -600 -477 -115 -90 -210 -169 -210 -175 0 -9
197 -13 805 -15 443 -1 815 0 828 3 l22 5 0 500 0 499 53 34 c28 18 143 86
255 152 111 65 202 122 202 127 0 4 -488 8 -1085 8 -597 0 -1085 -4 -1085 -8z"/>
<path d="M2720 2361 c0 -77 4 -142 8 -145 14 -8 417 -9 422 -1 3 5 -52 43
-121 85 -69 42 -165 104 -212 138 -47 34 -88 62 -91 62 -3 0 -6 -63 -6 -139z"/>
<path d="M6763 2432 c-51 -37 -144 -98 -208 -137 -64 -38 -115 -74 -113 -79 4
-11 410 -8 421 3 11 11 11 275 1 278 -5 1 -50 -28 -101 -65z"/>
<path d="M2575 2434 c-38 -24 -123 -74 -188 -111 -64 -37 -113 -71 -109 -75 5
-5 96 -7 203 -6 l194 3 3 118 c3 139 4 138 -103 71z"/>
<path d="M6917 2473 c-9 -8 -9 -196 -1 -217 5 -14 33 -16 205 -16 109 0 199 3
199 8 0 4 -42 31 -93 61 -50 30 -136 80 -190 113 -100 59 -109 63 -120 51z"/>
<path d="M2159 2174 c-5 -7 -8 -278 -7 -670 l3 -659 2643 -3 2642 -2 0 664 c0
396 -4 667 -9 671 -5 3 -1191 6 -2636 8 -1917 1 -2629 -1 -2636 -9z"/>
<path d="M1926 7184 c-26 -25 -19 -39 47 -99 89 -81 142 -111 173 -97 36 17
30 49 -18 95 -49 46 -155 117 -174 117 -7 0 -20 -7 -28 -16z"/>
<path d="M7994 6566 c-102 -50 -144 -87 -128 -114 17 -27 59 -26 122 3 132 61
186 113 146 142 -27 20 -43 17 -140 -31z"/>
<path d="M1367 6043 c-4 -3 -7 -21 -7 -40 0 -27 6 -37 33 -53 39 -24 70 -25
92 -4 14 14 14 19 2 38 -14 20 -81 64 -103 65 -6 1 -14 -2 -17 -6z"/>
<path d="M8442 5681 c-17 -10 -6 -75 15 -92 19 -17 79 12 88 42 13 41 -61 77
-103 50z"/>
<path d="M873 5070 c-31 -13 -55 -54 -51 -87 3 -27 6 -28 71 -36 78 -10 97 -1
97 45 0 42 -15 64 -51 77 -37 13 -37 13 -66 1z"/>
<path d="M1117 5066 c-22 -17 -41 -79 -32 -106 6 -18 16 -20 91 -20 l84 0 0
49 c0 42 -4 53 -26 70 -31 24 -90 27 -117 7z"/>
<path d="M1041 4467 c-58 -30 -52 -75 13 -91 53 -14 72 6 56 63 -12 44 -26 50
-69 28z"/>
<path d="M8179 3991 c-47 -39 7 -77 153 -107 96 -20 138 -12 138 25 0 26 -32
48 -105 70 -103 32 -157 36 -186 12z"/>
</g>
</svg>
